<?xml version="1.0" encoding="UTF-8" standalone="no"?>
<svg width="16px" height="16px" viewBox="0 0 16 16" version="1.1" xmlns="http://www.w3.org/2000/svg" xmlns:xlink="http://www.w3.org/1999/xlink" xmlns:sketch="http://www.bohemiancoding.com/sketch/ns">
    <!-- Generator: Sketch Beta 3.3.3 (12072) - http://www.bohemiancoding.com/sketch -->
    <title>Shape</title>
    <desc>Created with Sketch Beta.</desc>
    <defs></defs>
    <g id="Page-1" stroke="none" stroke-width="1" fill="none" fill-rule="evenodd" sketch:type="MSPage">
        <g id="My-screen" sketch:type="MSArtboardGroup" transform="translate(-482.000000, -308.000000)" fill-opacity="0.9" fill="#FFFFFF">
            <g id="Kickstart-your-Menti-+-MENTION-WEBINAR-+-Attend-this-webinar--+-time-+-chrono-+-date-+-Rectangle-5-+-REGISTER-NOW-FOR-FRE" sketch:type="MSLayerGroup" transform="translate(471.000000, 117.000000)">
                <g id="Kickstart-your-Menti-+-MENTION-WEBINAR-+-Attend-this-webinar--+-time-+-chrono-+-date" sketch:type="MSShapeGroup">
                    <g id="time-+-chrono-+-date" transform="translate(11.000000, 185.000000)">
                        <g id="date">
                            <path d="M15,21.9998125 L1,21.9998125 C0.44775,21.9998125 0,21.5518125 0,20.9995625 L0,9.9998125 L0,8.9993125 L0,6.9990625 C0,6.4470625 0.44775,5.9993125 1,5.9993125 L15,5.9993125 C15.552,5.9993125 16,6.4470625 16,6.9990625 L16,8.9993125 L16,9.9998125 L16,20.9995625 C16,21.5518125 15.552,21.9998125 15,21.9998125 L15,21.9998125 Z M15,7.4995625 C15,7.2233125 14.776,6.9990625 14.5,6.9990625 L1.5,6.9990625 C1.224,6.9990625 1,7.2230625 1,7.4995625 L1,8.9993125 L15,8.9993125 L15,7.4995625 L15,7.4995625 Z M1,9.9998125 L1,20.4993125 C1,20.7755625 1.224,20.9995625 1.5,20.9995625 L14.5,20.9995625 C14.776,20.9995625 15,20.7755625 15,20.4993125 L15,9.9998125 L1,9.9998125 L1,9.9998125 Z M10.95175,12.7070625 C10.94675,12.7165625 10.947,12.7278125 10.9415,12.7370625 L7.4285,18.7573125 C7.29,18.9923125 6.9835,19.0725625 6.74375,18.9373125 C6.504,18.8010625 6.42175,18.5005625 6.56025,18.2653125 L9.633,12.9995625 L6,12.9995625 C5.72375,12.9995625 5.5,12.7753125 5.5,12.4988125 C5.5,12.2233125 5.724,11.9995625 6,11.9995625 L10.5,11.9995625 C10.51075,11.9995625 10.51975,12.0048125 10.53025,12.0050625 C10.572,12.0073125 10.6115,12.0175625 10.65225,12.0298125 C10.672,12.0363125 10.692,12.0405625 10.7105,12.0490625 C10.726,12.0560625 10.74275,12.0560625 10.758,12.0650625 C10.79225,12.0843125 10.81575,12.1133125 10.8435,12.1388125 C10.84775,12.1430625 10.85225,12.1460625 10.8565,12.1498125 C10.99325,12.2853125 11.0365,12.4818125 10.96675,12.6625625 C10.9615,12.6778125 10.95825,12.6928125 10.95175,12.7070625 L10.95175,12.7070625 Z" id="Shape"></path>
                        </g>
                    </g>
                </g>
            </g>
        </g>
    </g>
</svg>