<svg width="64px" height="64px" viewBox="0 0 64 64" version="1.1" xmlns="http://www.w3.org/2000/svg" xmlns:xlink="http://www.w3.org/1999/xlink" xmlns:sketch="http://www.bohemiancoding.com/sketch/ns">
    <g id="Page-1" stroke="none" stroke-width="1" fill="none" fill-rule="evenodd" sketch:type="MSPage">
        <g id="Artboard-1" sketch:type="MSArtboardGroup" transform="translate(-370.000000, -125.000000)" fill="#FFFFFF">
            <path d="M429.775375,153.599 C429.912375,154.699 429.991375,155.799 429.991375,157 C429.991375,172.5 417.455375,185 401.991375,185 C386.527375,185 373.991375,172.5 373.991375,157 C373.991375,141.5 386.527375,129 401.991375,129 C408.612375,129 414.691375,131.3 419.485375,135.099 L422.331375,132.3 C416.802375,127.699 409.716375,125 401.991375,125 C384.318375,125 369.991375,139.299 369.991375,157 C369.991375,174.7 384.318375,189 401.991375,189 C419.664375,189 433.991375,174.7 433.991375,157 C433.991375,154.599 433.727375,152.3 433.240375,150.099 L429.775375,153.599 L429.775375,153.599 Z M391.373375,151.599 C390.597375,150.8 389.340375,150.8 388.564375,151.599 C387.788375,152.3 387.788375,153.599 388.564375,154.4 L400.608375,166.4 C401.251375,167.099 402.220375,167.2 402.976375,166.699 C403.734375,167.2 404.715375,167.099 405.362375,166.4 L433.427375,138.4 C434.202375,137.599 434.202375,136.299 433.427375,135.599 C432.651375,134.799 431.395375,134.799 430.620375,135.599 L402.991375,163.2 L391.373375,151.599 L391.373375,151.599 Z" id="check" sketch:type="MSShapeGroup"></path>
        </g>
    </g>
</svg>