<svg width="64px" height="64px" viewBox="0 0 64 64" version="1.1" xmlns="http://www.w3.org/2000/svg" xmlns:xlink="http://www.w3.org/1999/xlink" xmlns:sketch="http://www.bohemiancoding.com/sketch/ns">
  <g id="Page-1" stroke="none" stroke-width="1" fill="none" fill-rule="evenodd" sketch:type="MSPage">
      <g id="Artboard-1" sketch:type="MSArtboardGroup" transform="translate(-48.000000, -125.000000)" fill="#FFFFFF">
        <path d="M93.420375,143.599 C92.657375,142.8 91.421375,142.8 90.658375,143.599 L79.991375,154.2 L69.324375,143.599 C68.561375,142.8 67.324375,142.8 66.561375,143.599 C65.799375,144.3 65.799375,145.599 66.561375,146.3 L77.229375,157 L66.561375,167.7 C65.799375,168.4 65.799375,169.699 66.561375,170.4 C67.324375,171.199 68.561375,171.199 69.324375,170.4 L79.991375,159.8 L90.658375,170.4 C91.421375,171.199 92.657375,171.199 93.420375,170.4 C94.182375,169.699 94.182375,168.4 93.420375,167.7 L82.753375,157 L93.420375,146.3 C94.182375,145.599 94.182375,144.3 93.420375,143.599 L93.420375,143.599 Z M79.991375,185 C64.527375,185 51.991375,172.5 51.991375,157 C51.991375,141.5 64.527375,129 79.991375,129 C95.455375,129 107.991375,141.5 107.991375,157 C107.991375,172.5 95.455375,185 79.991375,185 L79.991375,185 Z M79.991375,125 C62.318375,125 47.991375,139.299 47.991375,157 C47.991375,174.7 62.318375,189 79.991375,189 C97.664375,189 111.991375,174.7 111.991375,157 C111.991375,139.299 97.664375,125 79.991375,125 L79.991375,125 Z" id="cross" sketch:type="MSShapeGroup"></path>
      </g>
  </g>
</svg>