<?xml version="1.0" encoding="UTF-8" standalone="no"?>
<svg width="64px" height="64px" viewBox="0 0 64 64" version="1.1" xmlns="http://www.w3.org/2000/svg" xmlns:xlink="http://www.w3.org/1999/xlink" xmlns:sketch="http://www.bohemiancoding.com/sketch/ns">
    <!-- Generator: Sketch Beta 3.3.2 (12041) - http://www.bohemiancoding.com/sketch -->
    <title>bubble</title>
    <desc>Created with Sketch Beta.</desc>
    <defs></defs>
    <g id="Page-1" stroke="none" stroke-width="1" fill="none" fill-rule="evenodd" sketch:type="MSPage">
        <path d="M46,22 L18,22 C16.895,22 16,22.889 16,24 C16,25.099 16.895,26 18,26 L46,26 C47.104,26 48,25.099 48,24 C48,22.889 47.104,22 46,22 L46,22 Z M42,34 L22,34 C20.895,34 20,34.889 20,36 C20,37.099 20.895,38 22,38 L42,38 C43.104,38 44,37.099 44,36 C44,34.889 43.104,34 42,34 L42,34 Z M32,52 C30.781,52 29.584,51.92 28.407,51.79 L16,58 L16,47.69 C8.748,43.349 4,36.15 4,28 C4,14.74 16.536,4 32,4 C47.464,4 60,14.74 60,28 C60,41.25 47.464,52 32,52 L32,52 Z M32,0 C14.327,0 0,12.53 0,28 C0,36.839 4.687,44.709 12,49.849 L12,64 L28.369,55.81 C29.561,55.93 30.771,56 32,56 C49.673,56 64,43.46 64,28 C64,12.53 49.673,0 32,0 L32,0 Z" id="bubble" fill="#1799DD" sketch:type="MSShapeGroup"></path>
    </g>
</svg>