<?xml version="1.0" encoding="UTF-8" standalone="no"?>
<svg width="64px" height="64px" viewBox="0 0 64 64" version="1.1" xmlns="http://www.w3.org/2000/svg" xmlns:xlink="http://www.w3.org/1999/xlink" xmlns:sketch="http://www.bohemiancoding.com/sketch/ns">
    <!-- Generator: Sketch Beta 3.3.2 (12041) - http://www.bohemiancoding.com/sketch -->
    <title>tel</title>
    <desc>Created with Sketch Beta.</desc>
    <defs></defs>
    <g id="Page-1" stroke="none" stroke-width="1" fill="none" fill-rule="evenodd" sketch:type="MSPage">
        <path d="M41.359,41.4126679 C29.705,53.0326679 19.189,59.6036679 11.713,59.9526679 C10.299,59.4436679 6.674,55.7836679 4.156,52.3126679 C3.978,52.0636679 3.875,51.7426679 3.875,51.4426679 C3.875,51.3836679 3.881,51.3226679 3.888,51.2836679 C5.523,50.1636679 14.666,44.1426679 16.375,43.0436679 C16.554,43.0436679 17.012,43.1036679 17.664,43.4426679 C18.359,43.8136679 20.385,44.9426679 23.219,46.5536679 L25.424,47.8126679 L27.502,46.3526679 C29.047,45.2726679 32.406,42.6926679 37.519,37.5926679 C42.656,32.4736679 45.236,29.1326679 46.318,27.6026679 L47.777,25.5226679 L46.517,23.3336679 C45.297,21.1936679 43.834,18.6236679 43.392,17.7826679 C43.038,17.1136679 43.01,16.6526679 43.01,16.5336679 C43.01,16.5136679 43.01,16.4926679 43.012,16.4836679 C43.972,14.9526679 50.174,5.64266791 51.304,3.99366791 C51.465,3.97366791 51.812,3.99366791 52.248,4.29366791 C55.762,6.82366791 59.431,10.4136679 59.957,11.8226679 C59.605,19.3036679 53.012,29.8036679 41.359,41.4126679 L41.359,41.4126679 Z M54.578,1.05266791 C52.053,-0.706332095 49.273,-0.0663320946 48.144,1.54366791 C47.457,2.51366791 40.334,13.1926679 39.531,14.5036679 C39.181,15.0736679 39.01,15.7726679 39.01,16.5336679 C39.01,17.5036679 39.295,18.5836679 39.851,19.6436679 C40.394,20.6736679 42.172,23.7826679 43.045,25.3036679 C42.099,26.6536679 39.679,29.8036679 34.691,34.7726679 C29.742,39.7026679 26.554,42.1436679 25.201,43.0936679 C23.674,42.2236679 20.551,40.4526679 19.523,39.9126679 C17.586,38.8926679 15.65,38.7736679 14.346,39.6026679 C13.115,40.3826679 2.482,47.4536679 1.47,48.1826679 C0.515,48.8736679 0,50.1026679 0,51.4426679 C0,52.5036679 0.32,53.6126679 0.998,54.5936679 C1.064,54.6836679 7.763,64.0726679 11.645,63.9436679 C22.547,63.6026679 35.359,53.0326679 44.187,44.2336679 C53.015,35.4326679 63.613,22.6626679 63.963,11.7426679 L63.963,11.6636679 C63.963,7.83366791 54.67,1.11266791 54.578,1.05266791 L54.578,1.05266791 Z" id="tel" fill="#1799DD" sketch:type="MSShapeGroup"></path>
    </g>
</svg>