<?xml version="1.0" encoding="UTF-8" standalone="no"?>
<svg width="16px" height="16px" viewBox="0 0 16 16" version="1.1" xmlns="http://www.w3.org/2000/svg" xmlns:xlink="http://www.w3.org/1999/xlink" xmlns:sketch="http://www.bohemiancoding.com/sketch/ns">
    <!-- Generator: Sketch Beta 3.3.3 (12072) - http://www.bohemiancoding.com/sketch -->
    <title>Fill 210</title>
    <desc>Created with Sketch Beta.</desc>
    <defs></defs>
    <g id="Page-1" stroke="none" stroke-width="1" fill="none" fill-rule="evenodd" sketch:type="MSPage">
        <g id="My-screen" sketch:type="MSArtboardGroup" transform="translate(-853.000000, -308.000000)" fill-opacity="0.9" fill="#FFFFFF">
            <g id="Kickstart-your-Menti-+-MENTION-WEBINAR-+-Attend-this-webinar--+-time-+-chrono-+-date-+-Rectangle-5-+-REGISTER-NOW-FOR-FRE" sketch:type="MSLayerGroup" transform="translate(471.000000, 117.000000)">
                <g id="Kickstart-your-Menti-+-MENTION-WEBINAR-+-Attend-this-webinar--+-time-+-chrono-+-date" sketch:type="MSShapeGroup">
                    <g id="time-+-chrono-+-date" transform="translate(11.000000, 185.000000)">
                        <g id="chrono" transform="translate(371.000000, 1.000000)">
                            <path d="M11.392,10.3597333 L12.1466667,9.61306667 C12.3546667,9.4 12.3546667,9.05333333 12.1466667,8.84 C11.9386667,8.65333333 11.6026667,8.65333333 11.3946667,8.84 L10.64,9.61306667 C10.432,9.8264 10.432,10.1466667 10.64,10.3597333 C10.848,10.5733333 11.184,10.5733333 11.392,10.3597333 L11.392,10.3597333 Z M11.3946667,15.64 C11.1866667,15.4264 10.848,15.4264 10.64,15.64 C10.432,15.8533333 10.432,16.1733333 10.64,16.3866667 L11.3946667,17.1597333 C11.6026667,17.3466667 11.9386667,17.3466667 12.1466667,17.1597333 C12.3573333,16.9466667 12.3546667,16.6 12.1466667,16.3866667 L11.3946667,15.64 L11.3946667,15.64 Z M8,7.13333333 C7.70666667,7.13333333 7.46666667,7.37333333 7.46666667,7.66666667 L7.46666667,8.73333333 C7.46666667,9.0264 7.70666667,9.26666667 8,9.26666667 C8.29333333,9.26666667 8.53333333,9.0264 8.53333333,8.73333333 L8.53333333,7.66666667 C8.53333333,7.37333333 8.29333333,7.13333333 8,7.13333333 L8,7.13333333 Z M8,19.9333333 C4.17066667,19.9333333 1.06666667,16.84 1.06666667,13 C1.06666667,9.15973333 4.17066667,6.06666667 8,6.06666667 C11.8293333,6.06666667 14.9333333,9.15973333 14.9333333,13 C14.9333333,16.84 11.8293333,19.9333333 8,19.9333333 L8,19.9333333 Z M8,5 C3.58133333,5 0,8.57333333 0,13 C0,17.4264 3.58133333,21 8,21 C12.4186667,21 16,17.4264 16,13 C16,8.57333333 12.4186667,5 8,5 L8,5 Z M13.3333333,12.4666667 L12.2666667,12.4666667 C11.9733333,12.4666667 11.7333333,12.7066667 11.7333333,13 C11.7333333,13.2930667 11.9733333,13.5333333 12.2666667,13.5333333 L13.3333333,13.5333333 C13.6266667,13.5333333 13.8666667,13.2930667 13.8666667,13 C13.8666667,12.7066667 13.6266667,12.4666667 13.3333333,12.4666667 L13.3333333,12.4666667 Z M4.26666667,13 C4.26666667,12.7066667 4.02666667,12.4666667 3.73333333,12.4666667 L2.66666667,12.4666667 C2.37333333,12.4666667 2.13333333,12.7066667 2.13333333,13 C2.13333333,13.2930667 2.37333333,13.5333333 2.66666667,13.5333333 L3.73333333,13.5333333 C4.02666667,13.5333333 4.26666667,13.2930667 4.26666667,13 L4.26666667,13 Z M8,16.7333333 C7.70666667,16.7333333 7.46666667,16.9733333 7.46666667,17.2666667 L7.46666667,18.3333333 C7.46666667,18.6264 7.70666667,18.8666667 8,18.8666667 C8.29333333,18.8666667 8.53333333,18.6264 8.53333333,18.3333333 L8.53333333,17.2666667 C8.53333333,16.9733333 8.29333333,16.7333333 8,16.7333333 L8,16.7333333 Z M4.60533333,15.64 L3.85066667,16.3866667 C3.64266667,16.6 3.64266667,16.9466667 3.85066667,17.1597333 C4.05866667,17.3466667 4.39733333,17.3466667 4.60533333,17.1597333 L5.36,16.3866667 C5.568,16.1733333 5.568,15.8533333 5.36,15.64 C5.152,15.4264 4.81333333,15.4264 4.60533333,15.64 L4.60533333,15.64 Z M4.60533333,8.84 C4.39733333,8.65333333 4.05866667,8.65333333 3.85066667,8.84 C3.64266667,9.05333333 3.64266667,9.4 3.85066667,9.61306667 L4.60533333,10.3597333 C4.81333333,10.5733333 5.152,10.5733333 5.36,10.3597333 C5.568,10.1466667 5.568,9.8264 5.36,9.61306667 L4.60533333,8.84 L4.60533333,8.84 Z" id="Fill-210"></path>
                        </g>
                    </g>
                </g>
            </g>
        </g>
    </g>
</svg>