<?xml version="1.0" encoding="UTF-8" standalone="no"?>
<svg width="64px" height="64px" viewBox="0 0 64 64" version="1.1" xmlns="http://www.w3.org/2000/svg" xmlns:xlink="http://www.w3.org/1999/xlink" xmlns:sketch="http://www.bohemiancoding.com/sketch/ns">
    <!-- Generator: Sketch Beta 3.3.3 (12072) - http://www.bohemiancoding.com/sketch -->
    <title>XMLID_14_</title>
    <desc>Created with Sketch Beta.</desc>
    <defs></defs>
    <g id="Page-1" stroke="none" stroke-width="1" fill="none" fill-rule="evenodd" sketch:type="MSPage">
        <g id="My-screen" sketch:type="MSArtboardGroup" transform="translate(-688.000000, -117.000000)" fill="#FFFFFF">
            <g id="Kickstart-your-Menti-+-MENTION-WEBINAR-+-Attend-this-webinar--+-time-+-chrono-+-date-+-Rectangle-5-+-REGISTER-NOW-FOR-FRE" sketch:type="MSLayerGroup" transform="translate(471.000000, 117.000000)">
                <g id="Kickstart-your-Menti-+-MENTION-WEBINAR-+-Attend-this-webinar--+-time-+-chrono-+-date" sketch:type="MSShapeGroup">
                    <g id="Kickstart-your-Menti-+-MENTION-WEBINAR-+-Attend-this-webinar-">
                        <g id="resources" transform="translate(217.000000, 0.000000)">
                            <g id="Page-1">
                                <g id="resources">
                                    <g id="Page-1">
                                        <g id="Artboard-24">
                                            <path d="M31.7999992,0 C14.2496199,0 0,14.2496199 0,31.7999992 C0,49.3503786 14.2496199,63.5999985 31.7999992,63.5999985 C49.3503786,63.5999985 63.5999985,49.3503786 63.5999985,31.7999992 C63.5999985,14.1691136 49.3503786,0 31.7999992,0 L31.7999992,0 L31.7999992,0 Z M46.2106317,52.409619 L31.7999992,41.9437965 L17.1478477,52.4901253 L22.7027842,35.5837966 L8.45316432,25.1984805 L26.1645563,25.1984805 L31.7999992,8.29215171 L37.2744295,25.0374677 L55.1468342,25.0374677 L40.6556952,35.664303 L46.2106317,52.409619 L46.2106317,52.409619 Z" id="XMLID_14_"></path>
                                        </g>
                                    </g>
                                </g>
                            </g>
                        </g>
                    </g>
                </g>
            </g>
        </g>
    </g>
</svg>