<?xml version="1.0" encoding="UTF-8" standalone="no"?>
<svg width="14px" height="12px" viewBox="0 0 14 12" version="1.1" xmlns="http://www.w3.org/2000/svg" xmlns:xlink="http://www.w3.org/1999/xlink" xmlns:sketch="http://www.bohemiancoding.com/sketch/ns">
    <!-- Generator: Sketch Beta 3.3.2 (12041) - http://www.bohemiancoding.com/sketch -->
    <title>TwitterLogo_#55acee</title>
    <desc>Created with Sketch Beta.</desc>
    <defs>
        <path id="path-1" d="M0.00306569343,0.042 L13.9688321,0.042 L13.9688321,11.3910949 L0.00306569343,11.3910949"></path>
    </defs>
    <g id="Page-1" stroke="none" stroke-width="1" fill="none" fill-rule="evenodd" sketch:type="MSPage">
        <g id="TwitterLogo_#55acee" sketch:type="MSLayerGroup">
            <g id="Page-1">
                <mask id="mask-2" sketch:name="Clip 2" fill="white">
                    <use xlink:href="#path-1"></use>
                </mask>
                <g id="Clip-2"></g>
                <path d="M13.9688321,1.38584672 C13.4548686,1.61378102 12.9025328,1.76783212 12.3228102,1.83711679 C12.9145401,1.48241606 13.368927,0.920781022 13.5829124,0.251591241 C13.0291971,0.579978102 12.415854,0.818489051 11.7630657,0.947043796 C11.2402628,0.390058394 10.4954526,0.042 9.67118978,0.042 C8.08842336,0.042 6.80522628,1.32514599 6.80522628,2.90781022 C6.80522628,3.13242336 6.83062044,3.35116058 6.87946715,3.56090511 C4.49762774,3.44139416 2.38592701,2.30044526 0.972437956,0.566591241 C0.725751825,0.989861314 0.584423358,1.48216058 0.584423358,2.00736496 C0.584423358,3.00162044 1.09041606,3.87881752 1.85939416,4.39272993 C1.38957664,4.37786131 0.947708029,4.24894891 0.561277372,4.03429927 C0.561072993,4.04625547 0.561072993,4.05826277 0.561072993,4.07032117 C0.561072993,5.45887591 1.54894161,6.61719708 2.8599854,6.88043796 C2.61948175,6.94594161 2.36630657,6.98094161 2.10490511,6.98094161 C1.92024818,6.98094161 1.74070073,6.9630073 1.56575182,6.92954015 C1.93041606,8.06813869 2.98879562,8.89669343 4.24286861,8.91983942 C3.26205109,9.68845985 2.02632117,10.1466277 0.683649635,10.1466277 C0.452343066,10.1466277 0.22420438,10.1330876 0,10.1066204 C1.26827737,10.9197445 2.77470803,11.3941606 4.39313869,11.3941606 C9.66449635,11.3941606 12.5470657,7.02723358 12.5470657,3.24013139 C12.5470657,3.11586861 12.5443066,2.99227007 12.5387883,2.86938686 C13.0986861,2.46532847 13.5845985,1.96056204 13.9688321,1.38584672" id="Fill-1" fill="#5D9EC9" sketch:type="MSShapeGroup" mask="url(#mask-2)"></path>
            </g>
        </g>
    </g>
</svg>