<?xml version="1.0" encoding="UTF-8" standalone="no"?>
<svg width="546px" height="76px" viewBox="0 0 546 76" version="1.1" xmlns="http://www.w3.org/2000/svg" xmlns:xlink="http://www.w3.org/1999/xlink" xmlns:sketch="http://www.bohemiancoding.com/sketch/ns">
    <!-- Generator: Sketch 3.2.2 (9983) - http://www.bohemiancoding.com/sketch -->
    <title>cio</title>
    <desc>Created with Sketch.</desc>
    <defs></defs>
    <g id="Page-1" stroke="none" stroke-width="1" fill="none" fill-rule="evenodd" sketch:type="MSPage">
        <g id="cio" sketch:type="MSLayerGroup">
            <g id="Group" sketch:type="MSShapeGroup">
                <path d="M17.078,17.438 L0.128,5.629 L0.128,52.916 L17.078,41.129 L17.078,17.438 Z" id="Shape" fill="#C3C3C3"></path>
                <path d="M99.837,76.001 C107.431,76.001 113.646,69.055 113.646,60.563 L113.646,42.928 L113.646,40.907 L113.646,36.993 L57.55,76.001 L99.837,76.001 L99.837,76.001 Z" id="Shape" fill="#585858"></path>
                <path d="M113.646,5.488 L56.783,44.977 L56.766,44.965 L12.295,75.891 C12.827,75.96 13.37,76.002 13.918,76.002 L57.55,76.002 L113.645,36.992 L113.645,5.488 L113.646,5.488 Z" id="Shape" fill="#8C8C8C"></path>
                <path d="M21.678,32.372 L34.194,23.716 L56.814,39.397 L113.646,0.024 L0,0 L21.678,15.035 L21.678,32.372 L21.678,32.372 Z M56.813,33.848 L36.419,19.699 L101.015,4.798 L56.813,33.848 L56.813,33.848 Z M14.646,4.588 L99.804,2.799 L26.712,12.984 L14.646,4.588 L14.646,4.588 Z" id="Shape" fill="#AAAAAA"></path>
                <path d="M34.165,29.247 L0.128,52.916 L0.128,61.391 C0.343,65.85 2.344,69.722 5.178,72.494 C6.636,73.918 8.602,75.347 12.293,75.891 L56.781,44.977 L34.165,29.247 L34.165,29.247 Z" id="Shape" fill="#B6B6B6"></path>
                <path d="M135.426,37.021 C135.426,20.988 147.548,10.042 163.189,10.042 C174.685,10.042 181.331,16.296 185.007,22.786 L175.467,27.479 C173.277,23.254 168.584,19.893 163.189,19.893 C153.726,19.893 146.844,27.166 146.844,37.02 C146.844,46.875 153.726,54.145 163.189,54.145 C168.584,54.145 173.277,50.862 175.467,46.561 L185.007,51.174 C181.253,57.666 174.685,64 163.189,64 C147.548,64.002 135.426,53.053 135.426,37.021" id="Shape" fill="#AAAAAA"></path>
                <path d="M215.91,63.062 L215.91,58.292 C213.329,61.185 208.793,64.001 202.615,64.001 C194.326,64.001 190.415,59.464 190.415,52.114 L190.415,25.293 L200.347,25.293 L200.347,48.203 C200.347,53.443 203.085,55.164 207.307,55.164 C211.139,55.164 214.188,53.053 215.91,50.863 L215.91,25.293 L225.842,25.293 L225.842,63.063 L215.91,63.063 L215.91,63.062 Z" id="Shape" fill="#AAAAAA"></path>
                <path d="M231.249,59.83 L235.55,52.871 C238.46,54.664 243.918,56.336 248.61,56.336 C252.912,56.336 254.944,54.617 254.944,52.27 C254.944,46.014 232.501,51.098 232.501,36.239 C232.501,29.905 238.053,24.352 247.983,24.352 C254.397,24.352 259.416,25.569 263.529,27.831 L258.74,34.202 C256.025,32.757 252.677,31.938 248.062,31.938 C244.465,31.938 242.119,33.579 242.119,35.692 C242.119,41.323 264.485,36.63 264.485,51.88 C264.485,58.763 258.62,64.003 248.142,64.003 C241.571,64.002 235.775,62.77 231.249,59.83" id="Shape" fill="#AAAAAA"></path>
                <path d="M273.979,53.678 L273.979,35.198 L267.731,35.198 L267.731,32.32 L280.793,14.966 L283.988,14.966 L283.988,26.515 L291.65,26.515 L291.65,35.197 L283.988,35.197 L283.988,51.017 C283.988,53.367 285.24,55.163 287.427,55.163 C288.913,55.163 290.322,54.616 290.868,54.067 L292.979,61.575 C291.495,62.905 288.834,64.001 284.69,64.001 C277.733,64.002 273.979,60.402 273.979,53.678" id="Shape" fill="#AAAAAA"></path>
                <path d="M297.116,44.137 C297.116,33.424 304.622,24.352 317.057,24.352 C329.569,24.352 337.077,33.424 337.077,44.137 C337.077,54.93 329.569,64.002 317.057,64.002 C304.622,64.002 297.116,54.93 297.116,44.137 M326.755,44.137 C326.755,38.272 323.234,33.188 317.058,33.188 C310.88,33.188 307.439,38.272 307.439,44.137 C307.439,50.08 310.88,55.164 317.058,55.164 C323.233,55.164 326.755,50.08 326.755,44.137" id="Shape" fill="#AAAAAA"></path>
                <path d="M389.327,64.002 L389.327,40.15 C389.327,36.63 387.765,34.127 383.698,34.127 C380.178,34.127 377.284,36.475 375.878,38.508 L375.878,64.002 L365.868,64.002 L365.868,40.15 C365.868,36.63 364.304,34.127 360.237,34.127 C356.796,34.127 353.901,36.475 352.415,38.586 L352.415,64.002 L342.483,64.002 L342.483,26.232 L352.415,26.232 L352.415,31.156 C353.979,28.888 358.985,25.291 364.772,25.291 C370.325,25.291 373.842,27.871 375.251,32.174 C377.44,28.733 382.446,25.291 388.233,25.291 C395.194,25.291 399.338,28.967 399.338,36.709 L399.338,64.002 L389.327,64.002 L389.327,64.002 Z" id="Shape" fill="#AAAAAA"></path>
                <path d="M404.745,44.137 C404.745,33.188 412.8,24.352 424.296,24.352 C435.558,24.352 443.22,32.799 443.22,45.155 L443.22,47.344 L415.146,47.344 C415.771,52.115 419.605,56.102 426.017,56.102 C429.222,56.102 433.681,54.696 436.105,52.348 L440.484,58.762 C436.73,62.201 430.787,64.002 424.922,64.002 C413.427,64.002 404.745,56.258 404.745,44.137 M424.296,32.25 C418.118,32.25 415.458,36.865 414.989,40.617 L433.602,40.617 C433.368,37.021 430.864,32.25 424.296,32.25" id="Shape" fill="#AAAAAA"></path>
                <path d="M448.628,64.002 L448.628,26.232 L458.562,26.232 L458.562,31.39 C461.218,28.027 465.912,25.29 470.603,25.29 L470.603,34.987 C469.9,34.831 468.962,34.753 467.867,34.753 C464.582,34.753 460.203,36.63 458.562,39.054 L458.562,64.001 L448.628,64.001 L448.628,64.002 Z" id="Shape" fill="#AAAAAA"></path>
                <path d="M469.519,57.588 C469.519,54.147 472.414,51.254 475.853,51.254 C479.294,51.254 482.189,54.147 482.189,57.588 C482.189,61.027 479.294,63.924 475.853,63.924 C472.413,63.924 469.519,61.027 469.519,57.588" id="Shape" fill="#AAAAAA"></path>
                <path d="M489.382,16.221 C489.382,12.936 492.12,10.356 495.325,10.356 C498.61,10.356 501.268,12.936 501.268,16.221 C501.268,19.504 498.61,22.164 495.325,22.164 C492.12,22.164 489.382,19.504 489.382,16.221 L489.382,16.221 Z M490.399,26.23 L500.331,26.23 L500.331,64.001 L490.399,64.001 L490.399,26.23 L490.399,26.23 Z" id="Shape" fill="#AAAAAA"></path>
                <path d="M505.685,44.137 C505.685,33.424 513.193,24.352 525.626,24.352 C538.138,24.352 545.646,33.424 545.646,44.137 C545.646,54.93 538.138,64.002 525.626,64.002 C513.192,64.002 505.685,54.93 505.685,44.137 M535.323,44.137 C535.323,38.272 531.803,33.188 525.626,33.188 C519.449,33.188 516.007,38.272 516.007,44.137 C516.007,50.08 519.448,55.164 525.626,55.164 C531.804,55.164 535.323,50.08 535.323,44.137" id="Shape" fill="#AAAAAA"></path>
            </g>
        </g>
    </g>
</svg>