<?xml version="1.0" encoding="UTF-8" standalone="no"?>
<svg width="306px" height="58px" viewBox="0 0 306 58" version="1.1" xmlns="http://www.w3.org/2000/svg" xmlns:xlink="http://www.w3.org/1999/xlink" xmlns:sketch="http://www.bohemiancoding.com/sketch/ns">
    <!-- Generator: Sketch 3.2.2 (9983) - http://www.bohemiancoding.com/sketch -->
    <title>helpscout</title>
    <desc>Created with Sketch.</desc>
    <defs></defs>
    <g id="Page-1" stroke="none" stroke-width="1" fill="none" fill-rule="evenodd" sketch:type="MSPage">
        <g id="helpscout" sketch:type="MSLayerGroup" fill="#AAAAAA">
            <path d="M91.082,45.625 L91.082,29.133 L84.283,29.133 L84.283,45.625 L75.28,45.625 L75.28,6.882 L84.283,6.882 L84.283,22.277 L91.082,22.277 L91.082,6.882 L100.081,6.882 L100.081,45.625 L91.082,45.625" id="Fill-1" sketch:type="MSShapeGroup"></path>
            <path d="M118.59,23.55 C118.59,21.464 117.481,20.298 115.624,20.298 C113.651,20.298 112.545,21.523 112.545,23.55 L112.545,27.041 L118.59,27.041 L118.59,23.55 L118.59,23.55 Z M115.799,46.208 C108.016,46.208 103.89,42.37 103.89,34.997 L103.89,26.397 C103.89,18.441 107.784,14.786 116.092,14.786 C122.711,14.786 127.008,18.268 127.008,25.005 L127.008,32.148 L112.545,32.148 L112.545,36.854 C112.545,39.006 113.59,40.222 115.508,40.222 C117.542,40.222 118.412,39.352 118.412,36.447 L118.412,35.75 L127.008,35.75 L127.008,36.447 C127.008,43.129 122.364,46.208 115.799,46.208 L115.799,46.208 Z" id="Fill-2" sketch:type="MSShapeGroup"></path>
            <path d="M130.806,4.618 L139.342,4.618 L139.342,45.625 L130.806,45.625 L130.806,4.618 Z" id="Fill-3" sketch:type="MSShapeGroup"></path>
            <path d="M157.899,24.365 C157.899,21.811 156.908,20.53 155.049,20.53 C153.773,20.53 152.785,21.23 151.623,22.393 L151.623,38.769 C152.61,39.874 153.951,40.575 154.995,40.575 C156.969,40.575 157.899,39.352 157.899,36.796 L157.899,24.365 L157.899,24.365 Z M158.48,46.32 C155.694,46.32 153.716,45.337 151.623,42.895 L151.623,58 L143.082,58 L143.082,15.361 L151.16,15.361 L151.39,18.091 C153.426,15.944 155.982,14.786 158.653,14.786 C163.652,14.786 166.379,18.387 166.379,24.772 L166.379,35.808 C166.379,42.778 163.707,46.32 158.48,46.32 L158.48,46.32 Z" id="Fill-4" sketch:type="MSShapeGroup"></path>
            <path d="M190.472,46.208 C182.807,46.208 178.452,42.14 178.452,35.4 L178.452,33.717 L187.28,33.717 L187.28,34.824 C187.28,38.366 188.209,39.994 190.826,39.994 C193.379,39.994 194.138,38.769 194.138,36.504 C194.138,29.304 179.032,27.442 179.032,16.117 C179.032,9.784 183.158,6.242 191.347,6.242 C198.78,6.242 202.441,10.543 202.441,16.99 L202.441,17.916 L194.079,17.916 L194.079,16.871 C194.079,13.852 193.033,12.458 190.826,12.458 C188.617,12.458 187.691,13.621 187.691,15.599 C187.691,21.23 203.138,24.542 203.138,36.157 C203.138,42.719 199.366,46.208 190.472,46.208" id="Fill-5" sketch:type="MSShapeGroup"></path>
            <path d="M218.513,46.208 C210.965,46.208 206.895,42.778 206.895,36.447 L206.895,24.365 C206.895,18.498 211.371,14.786 218.398,14.786 C225.135,14.786 229.142,18.209 229.142,23.726 L229.142,26.222 L220.836,26.222 L220.836,24.542 C220.836,22.277 220.139,20.996 218.164,20.996 C216.366,20.996 215.437,22.219 215.437,24.542 L215.437,36.274 C215.437,38.889 216.187,39.994 218.287,39.994 C220.139,39.994 220.956,39.063 220.956,36.504 L220.956,35.112 L229.433,35.112 L229.433,36.854 C229.433,43.017 226.004,46.208 218.513,46.208" id="Fill-6" sketch:type="MSShapeGroup"></path>
            <path d="M247.68,24.657 C247.68,22.51 246.866,20.996 244.542,20.996 C242.221,20.996 241.35,22.51 241.35,24.657 L241.35,36.447 C241.35,38.597 242.279,39.994 244.542,39.994 C246.809,39.994 247.68,38.597 247.68,36.447 L247.68,24.657 L247.68,24.657 Z M244.43,46.208 C237.166,46.208 232.81,43.017 232.81,35.458 L232.81,25.061 C232.81,17.976 238.043,14.786 244.602,14.786 C251.341,14.786 256.217,17.804 256.217,25.061 L256.217,35.458 C256.217,43.129 251.684,46.208 244.43,46.208 L244.43,46.208 Z" id="Fill-7" sketch:type="MSShapeGroup"></path>
            <path d="M274.927,45.625 L274.638,42.895 C272.541,44.872 270.046,46.208 267.142,46.208 C261.504,46.208 259.883,42.086 259.883,37.09 L259.883,15.361 L268.415,15.361 L268.415,37.205 C268.415,38.769 268.945,40.052 270.746,40.052 C272.081,40.052 273.241,39.238 274.173,38.366 L274.173,15.361 L282.71,15.361 L282.71,45.625 L274.927,45.625" id="Fill-8" sketch:type="MSShapeGroup"></path>
            <g id="Group-12" sketch:type="MSShapeGroup">
                <path d="M300.431,46.208 C293.403,46.208 290.437,42.84 290.437,35.927 L290.437,21.408 L286.724,21.408 L286.724,15.361 L290.5,15.361 L290.5,8.104 L299.036,6.882 L299.036,15.361 L305.367,15.361 L305.367,21.408 L299.036,21.408 L299.036,35.691 C299.036,38.079 300.077,39.524 302.583,39.524 C303.566,39.524 304.552,39.352 305.484,39.119 L305.541,45.567 C303.855,45.916 302.174,46.208 300.431,46.208" id="Fill-9"></path>
                <path d="M52.28,35.721 C52.28,35.721 51.356,36.797 50.179,38.036 C52.8,34.642 54.228,31.333 54.807,28.182 C56.179,28.217 60.341,27.892 60.454,22.616 C60.454,22.616 60.037,17.022 60.764,16.251 C60.764,16.251 55.859,16.741 55.115,25.076 C55.16,22.033 54.466,19.173 53.356,16.57 C54.423,16.082 58.408,13.808 55.063,8.242 C55.063,8.242 54.157,6.736 54.256,5.573 C54.256,5.573 50.107,8.074 51.453,12.069 C51.453,12.069 52.001,13.156 52.586,14.923 C51.186,12.183 49.379,9.775 47.611,7.794 C47.551,6.665 46.765,-0.743 36.3,1.145 C36.3,1.145 37.849,9.706 47.197,8.013 C48.746,9.955 50.303,12.287 51.491,14.914 C49.918,12.367 46.658,8.697 42.024,11.604 C42.024,11.604 43.446,12.546 44.886,15.624 C44.886,15.624 46.163,19.095 52.34,17.038 C53.262,19.677 53.758,22.561 53.507,25.608 C53.216,23.919 51.789,18.332 45.8,20.586 C45.8,20.586 46.794,21.961 47.146,24.3 C47.146,24.3 48.369,28.236 53.136,28.094 C52.52,30.938 51.208,33.898 48.964,36.914 C49.861,34.52 50.728,29.917 45.125,28.067 C45.125,28.067 45.528,29.593 44.487,31.322 C44.487,31.322 42.021,35.5 46.572,39.765 C44.793,41.661 42.616,43.572 39.99,45.482 C41.274,43.714 42.508,40.566 40.365,36.021 C40.365,36.021 40.552,37.236 38.519,37.844 C38.519,37.844 32.091,39.843 36.065,48.112 C34.915,48.826 33.162,49.751 30.596,50.721 C28.031,49.751 26.279,48.826 25.127,48.112 C29.105,39.843 22.675,37.844 22.675,37.844 C20.638,37.236 20.827,36.021 20.827,36.021 C18.685,40.563 19.917,43.71 21.2,45.478 C18.577,43.569 16.401,41.66 14.623,39.764 C19.173,35.499 16.708,31.322 16.708,31.322 C15.667,29.593 16.067,28.067 16.067,28.067 C10.469,29.916 11.331,34.515 12.228,36.91 C9.985,33.895 8.674,30.936 8.058,28.094 C12.821,28.236 14.047,24.3 14.047,24.3 C14.4,21.961 15.393,20.586 15.393,20.586 C9.414,18.336 7.981,23.898 7.687,25.599 C7.436,22.555 7.933,19.674 8.853,17.038 C15.031,19.095 16.306,15.624 16.306,15.624 C17.749,12.546 19.167,11.604 19.167,11.604 C14.535,8.696 11.275,12.368 9.701,14.915 C10.89,12.287 12.447,9.955 13.996,8.013 C23.344,9.707 24.895,1.145 24.895,1.145 C14.439,-0.742 13.645,6.652 13.584,7.791 C11.816,9.771 10.008,12.179 8.608,14.92 C9.192,13.155 9.74,12.069 9.74,12.069 C11.087,8.074 6.939,5.573 6.939,5.573 C7.036,6.736 6.13,8.242 6.13,8.242 C2.785,13.805 6.766,16.08 7.836,16.569 C6.732,19.158 6.039,22.003 6.076,25.028 C5.316,16.738 0.431,16.251 0.431,16.251 C1.157,17.022 0.74,22.616 0.74,22.616 C0.853,27.892 5.014,28.217 6.385,28.182 C6.963,31.329 8.389,34.634 11.003,38.024 C9.832,36.79 8.913,35.721 8.913,35.721 C4.97,30.965 0,30.978 0,30.978 C0.648,32.2 1.039,34.591 1.039,34.591 C1.866,38.557 4.449,40.519 4.449,40.519 C7.441,43.018 11.985,41.075 13.136,40.516 C15.023,42.53 17.35,44.568 20.18,46.614 C18.636,45.684 14.656,43.528 12.475,44.584 C12.382,44.629 9.585,45.903 5.874,44.851 C5.874,44.851 11.665,54.073 23.807,49.505 C25.134,50.296 26.589,50.983 28.1,51.581 C25.158,52.523 21.45,53.453 16.755,54.209 L18.412,55.301 C20.74,54.866 25.695,54.08 30.596,52.477 C35.498,54.08 40.454,54.866 42.779,55.301 L44.44,54.209 C39.745,53.453 36.036,52.523 33.093,51.581 C34.604,50.983 36.059,50.296 37.385,49.506 C49.531,54.072 55.32,44.851 55.32,44.851 C51.608,45.903 48.81,44.629 48.72,44.584 C46.54,43.528 42.565,45.679 41.017,46.611 C43.845,44.565 46.171,42.529 48.058,40.515 C49.204,41.071 53.75,43.02 56.743,40.519 C56.743,40.519 59.328,38.557 60.155,34.591 C60.155,34.591 60.545,32.2 61.195,30.978 C61.195,30.978 56.225,30.965 52.28,35.721" id="Fill-11"></path>
            </g>
        </g>
    </g>
</svg>