<?xml version="1.0" encoding="UTF-8" standalone="no"?>
<svg width="542px" height="70px" viewBox="0 0 542 70" version="1.1" xmlns="http://www.w3.org/2000/svg" xmlns:xlink="http://www.w3.org/1999/xlink" xmlns:sketch="http://www.bohemiancoding.com/sketch/ns">
    <!-- Generator: Sketch 3.2.2 (9983) - http://www.bohemiancoding.com/sketch -->
    <title>kissmetrics</title>
    <desc>Created with Sketch.</desc>
    <defs></defs>
    <g id="Page-1" stroke="none" stroke-width="1" fill="none" fill-rule="evenodd" sketch:type="MSPage">
        <g id="kissmetrics" sketch:type="MSLayerGroup" fill="#AAAAAA">
            <path d="M130.443,68.483 L115.328,68.483 C113.424,68.483 112.757,67.913 111.806,66.294 L98.305,42.874 C96.686,40.12 95.544,36.711 95.544,36.711 L95.354,36.711 L95.354,66.204 C95.354,67.722 94.592,68.484 93.069,68.484 L79.369,68.484 C77.846,68.484 77.093,67.723 77.093,66.204 L77.093,3.797 C77.093,2.278 77.846,1.518 79.369,1.518 L93.068,1.518 C94.591,1.518 95.353,2.278 95.353,3.797 L95.353,29.024 L95.543,29.024 L113.042,3.698 C114.088,2.179 114.66,1.519 116.564,1.519 L128.449,1.519 C129.973,1.519 130.639,2.279 130.639,3.798 C130.639,4.27 130.441,4.931 130.06,5.501 L111.239,30.828 L132.065,64.396 C132.439,64.966 132.725,65.643 132.725,66.204 C132.728,67.721 131.966,68.483 130.443,68.483 L130.443,68.483 Z" id="Shape" sketch:type="MSShapeGroup"></path>
            <path d="M153.776,68.483 L139.705,68.483 C138.173,68.483 137.507,67.722 137.507,66.203 L137.507,3.797 C137.507,2.278 138.173,1.518 139.705,1.518 L153.776,1.518 C155.292,1.518 156.061,2.278 156.061,3.797 L156.061,66.203 C156.061,67.721 155.292,68.483 153.776,68.483 L153.776,68.483 Z" id="Shape" sketch:type="MSShapeGroup"></path>
            <path d="M185.572,70 C170.255,70 161.119,61.175 161.119,53.018 C161.119,48.182 164.833,45.34 169.399,45.34 C173.588,45.34 176.531,47.803 177.761,50.745 C179.198,54.058 181.669,58.139 186.327,58.139 C190.326,58.139 192.706,55.48 192.706,51.79 C192.706,38.504 162.072,41.258 162.072,19.535 C162.07,7.018 172.445,0 186.326,0 C202.786,0 209.534,8.914 209.534,14.607 C209.534,19.347 206.11,22.1 201.452,22.1 C197.643,22.1 195.077,19.822 193.657,16.783 C192.324,13.85 190.325,10.811 186.238,10.811 C182.621,10.811 179.955,13.186 179.955,17.352 C179.955,29.782 211.438,26.744 211.438,49.797 C211.438,61.843 202.118,70 185.572,70 L185.572,70 Z" id="Shape" sketch:type="MSShapeGroup"></path>
            <path d="M239.616,70 C224.298,70 215.174,61.175 215.174,53.018 C215.174,48.182 218.88,45.34 223.441,45.34 C227.631,45.34 230.582,47.803 231.819,50.745 C233.24,54.058 235.711,58.139 240.377,58.139 C244.364,58.139 246.747,55.48 246.747,51.79 C246.747,38.504 216.124,41.258 216.124,19.535 C216.125,7.018 226.489,0 240.378,0 C256.833,0 263.581,8.914 263.581,14.607 C263.581,19.347 260.157,22.1 255.493,22.1 C251.692,22.1 249.126,19.822 247.701,16.783 C246.368,13.85 244.366,10.811 240.283,10.811 C236.665,10.811 234.003,13.186 234.003,17.352 C234.003,29.782 265.487,26.744 265.487,49.797 C265.485,61.843 256.159,70 239.616,70 L239.616,70 Z" id="Shape" sketch:type="MSShapeGroup"></path>
            <path d="M334.27,68.483 L326.765,68.483 C325.613,68.483 325.138,68.004 325.138,66.864 L325.138,33.201 C325.138,27.314 322.007,23.999 316.393,23.999 C310.586,23.999 308.217,27.504 308.217,33.011 L308.217,66.864 C308.217,68.004 307.646,68.483 306.504,68.483 L298.989,68.483 C297.848,68.483 297.371,68.004 297.371,66.864 L297.371,33.201 C297.371,27.314 294.229,23.999 288.613,23.999 C283.201,23.999 280.443,25.708 280.443,30.542 L280.443,66.863 C280.443,68.003 279.964,68.482 278.825,68.482 L271.318,68.482 C270.168,68.482 269.597,68.003 269.597,66.863 L269.597,26.84 C269.597,23.524 270.739,22.194 273.398,20.959 C276.444,19.536 281.866,18.112 288.342,18.112 C295.752,18.112 300.227,20.296 303.361,23.809 C306.503,20.39 311.252,18.112 319.051,18.112 C326.191,18.112 335.884,21.341 335.884,32.722 L335.884,66.864 C335.885,68.003 335.413,68.483 334.27,68.483 L334.27,68.483 Z" id="Shape" sketch:type="MSShapeGroup"></path>
            <path d="M362.165,69.712 C350.665,69.712 340.383,62.224 340.383,43.626 C340.383,25.992 350.843,18.112 362.165,18.112 C374.049,18.112 380.807,27.314 380.807,36.899 C380.807,38.98 379.95,39.644 377.958,39.93 L350.285,44.487 C350.843,53.397 355.222,61.083 364.355,61.083 C370.438,61.083 374.435,56.526 376.433,53.018 C376.911,52.163 377.767,51.314 378.902,51.314 C380.14,51.314 381.091,52.448 381.091,53.682 C381.093,59.374 374.334,69.712 362.165,69.712 L362.165,69.712 Z M361.024,24.094 C353.414,24.094 350.179,31.682 349.796,39.075 L370.439,35.57 C370.151,29.687 367.772,24.094 361.024,24.094 L361.024,24.094 Z" id="Shape" sketch:type="MSShapeGroup"></path>
            <path d="M400.714,69.621 C395.859,69.621 388.248,67.813 388.248,55.955 L388.248,25.422 L383.207,25.422 C382.071,25.422 381.588,24.852 381.588,23.713 L381.588,20.958 C381.588,19.821 382.072,19.346 383.207,19.346 L388.248,19.346 L388.248,12.516 C388.248,11.192 388.349,10.432 389.296,9.957 L396.143,6.645 C396.525,6.448 397,6.075 397.476,6.075 C398.524,6.075 398.999,6.645 398.999,7.678 L398.999,19.346 L406.887,19.346 C408.028,19.346 408.505,19.821 408.505,20.958 L408.505,23.713 C408.505,24.851 408.028,25.422 406.887,25.422 L399,25.422 L399,56.15 C399,62.413 402.047,63.741 404.896,63.741 C405.855,63.741 406.412,63.551 407.085,63.551 C408.601,63.551 409.362,64.304 409.362,65.533 C409.362,67.814 405.657,69.621 400.714,69.621 L400.714,69.621 Z" id="Shape" sketch:type="MSShapeGroup"></path>
            <path d="M440.091,29.782 C434.951,29.782 435.997,24.094 430.575,24.094 C426.965,24.094 424.68,25.897 424.68,28.927 L424.68,66.863 C424.68,68.003 424.109,68.482 422.971,68.482 L415.451,68.482 C414.317,68.482 413.737,68.003 413.737,66.863 L413.737,26.84 C413.737,23.714 414.785,22.194 417.641,20.865 C420.586,19.535 426.106,18.111 432.189,18.111 C441.039,18.111 444.646,21.245 444.646,25.042 C444.647,27.884 443.028,29.782 440.091,29.782 L440.091,29.782 Z" id="Shape" sketch:type="MSShapeGroup"></path>
            <path d="M453.112,11.096 C449.414,11.096 446.836,8.817 446.836,5.97 C446.836,3.129 449.414,0.85 453.112,0.85 C456.824,0.85 459.395,3.129 459.395,5.97 C459.396,8.818 456.825,11.096 453.112,11.096 L453.112,11.096 Z M456.92,68.483 L449.313,68.483 C448.17,68.483 447.694,68.004 447.694,66.864 L447.694,20.959 C447.694,19.822 448.171,19.347 449.313,19.347 L456.92,19.347 C458.063,19.347 458.54,19.822 458.54,20.959 L458.54,66.864 C458.539,68.003 458.063,68.483 456.92,68.483 L456.92,68.483 Z" id="Shape" sketch:type="MSShapeGroup"></path>
            <path d="M483.092,69.712 C472.062,69.712 461.983,61.934 461.983,43.917 C461.983,27.124 471.015,18.112 483.472,18.112 C495.556,18.112 501.071,26.373 501.071,30.543 C501.071,33.58 499.262,35.373 496.032,35.373 C493.366,35.373 492.042,33.672 491.368,31.586 C490.702,29.402 488.613,24.094 482.811,24.094 C477.099,24.094 471.969,29.877 471.969,41.07 C471.969,51.595 476.348,60.795 485.757,60.795 C491.755,60.795 494.502,56.435 496.501,52.834 C497.08,51.79 498.024,51.125 499.167,51.125 C500.5,51.125 501.356,52.163 501.356,53.499 C501.356,59.279 494.985,69.712 483.092,69.712 L483.092,69.712 Z" id="Shape" sketch:type="MSShapeGroup"></path>
            <path d="M523.623,69.712 C510.779,69.712 505.355,61.934 505.355,57.761 C505.355,54.727 507.259,53.208 509.925,53.208 C512.301,53.208 514.301,54.44 515.054,56.34 C516.586,60.133 518.673,63.551 523.806,63.551 C527.616,63.551 530.947,60.794 530.947,56.34 C530.947,44.953 506.308,47.233 506.308,32.06 C506.308,23.238 513.445,18.111 523.521,18.111 C535.224,18.111 539.88,24.852 539.88,28.643 C539.88,31.492 537.977,32.915 535.605,32.915 C533.414,32.915 531.613,31.681 530.845,29.686 C529.614,26.742 527.616,23.428 523.338,23.428 C518.864,23.428 516.301,25.992 516.301,30.16 C516.301,41.258 541.305,38.504 541.305,54.726 C541.305,63.742 534.461,69.712 523.623,69.712 L523.623,69.712 Z" id="Shape" sketch:type="MSShapeGroup"></path>
            <path d="M45.506,0.69 C33.027,0.69 22.793,10.498 22.166,22.795 C9.835,23.42 0,33.622 0,46.072 C0,58.921 10.481,69.378 23.371,69.378 L59.389,69.385 L59.499,69.378 C64.673,69.378 68.886,65.189 68.886,60.024 L68.886,58.525 L68.886,23.998 C68.886,11.147 58.396,0.69 45.506,0.69 L45.506,0.69 Z M28.456,29.938 L29.729,30.33 L29.336,29.064 C28.845,27.514 28.591,25.868 28.591,24.15 C28.611,14.914 36.097,7.449 45.353,7.425 C54.61,7.449 62.104,14.918 62.116,24.15 L62.116,58.201 L62.116,59.68 C62.112,61.311 60.793,62.634 59.153,62.634 L59.045,62.634 L23.524,62.634 C14.263,62.621 6.781,55.156 6.761,45.919 C6.78,36.687 14.263,29.225 23.524,29.206 C25.248,29.207 26.898,29.458 28.456,29.938 L28.456,29.938 Z" id="Shape" sketch:type="MSShapeGroup"></path>
            <path d="M10.414,47.795 L10.414,47.795 L10.184,47.795 C10.233,48.336 10.281,48.666 10.414,49.21 L10.429,49.236 C11.712,54.049 15.538,57.831 20.379,59.084 L20.379,47.795 L10.414,47.795 L10.414,47.795 Z" id="Shape" sketch:type="MSShapeGroup"></path>
            <path d="M23.193,37.441 L23.193,59.508 C23.399,59.515 23.615,59.515 23.824,59.515 L32.751,59.515 L32.751,37.441 L23.193,37.441 L23.193,37.441 Z" id="Shape" sketch:type="MSShapeGroup"></path>
            <rect id="Rectangle-path" sketch:type="MSShapeGroup" x="36.103" y="19.307" width="9.558" height="40.208"></rect>
            <path d="M49.012,59.534 L56.715,59.534 C57.82,59.534 58.701,58.626 58.701,57.501 L58.701,30.646 L49.012,30.646 L49.012,59.534 L49.012,59.534 Z" id="Shape" sketch:type="MSShapeGroup"></path>
        </g>
    </g>
</svg>