<?xml version="1.0" encoding="UTF-8" standalone="no"?>
<svg width="268px" height="110px" viewBox="0 0 268 110" version="1.1" xmlns="http://www.w3.org/2000/svg" xmlns:xlink="http://www.w3.org/1999/xlink" xmlns:sketch="http://www.bohemiancoding.com/sketch/ns">
    <!-- Generator: Sketch 3.2.2 (9983) - http://www.bohemiancoding.com/sketch -->
    <title>satismeter</title>
    <desc>Created with Sketch.</desc>
    <defs></defs>
    <g id="Page-1" stroke="none" stroke-width="1" fill="none" fill-rule="evenodd" sketch:type="MSPage">
        <g id="satismeter" sketch:type="MSLayerGroup" transform="translate(1.000000, 0.000000)">
            <g id="Page-1" sketch:type="MSShapeGroup">
                <g id="website-black">
                    <rect id="Rectangle-5" stroke="#979797" x="0" y="1" width="266" height="108"></rect>
                    <path d="M88,0.71697789 L88,47.091133" id="Line-2" stroke="#AAAAAA" stroke-width="4"></path>
                    <path d="M66,0.71697789 L66,24.9121893" id="Line-4" stroke="#AAAAAA" stroke-width="4"></path>
                    <path d="M110,0.71697789 L110,24.9121893" id="Line-7" stroke="#AAAAAA" stroke-width="4"></path>
                    <path d="M132,0.71697789 L132,24.9121893" id="Line-8" stroke="#AAAAAA" stroke-width="4"></path>
                    <path d="M154,0.71697789 L154,24.9121893" id="Line-9" stroke="#AAAAAA" stroke-width="4"></path>
                    <path d="M196,0.71697789 L196,24.9121893" id="Line-10" stroke="#AAAAAA" stroke-width="4"></path>
                    <path d="M218,0.71697789 L218,24.9121893" id="Line-11" stroke="#AAAAAA" stroke-width="4"></path>
                    <path d="M242,0.71697789 L242,24.9121893" id="Line-12" stroke="#AAAAAA" stroke-width="4"></path>
                    <path d="M44,0.71697789 L44,24.9121893" id="Line-5" stroke="#AAAAAA" stroke-width="4"></path>
                    <path d="M22,0.71697789 L22,24.9121893" id="Line-6" stroke="#AAAAAA" stroke-width="4"></path>
                    <path d="M174,0.71697789 L174,47.091133" id="Line-3" stroke="#AAAAAA" stroke-width="4"></path>
                    <rect id="Rectangle-2" stroke="#AAAAAA" stroke-width="4" x="2" y="3" width="262" height="104"></rect>
                    <path d="M71.5976562,68.9023438 L68.2753906,70.8710938 C67.6542938,69.7929634 67.0625028,69.0898454 66.5,68.7617188 C65.9140596,68.3867169 65.1582078,68.1992188 64.2324219,68.1992188 C63.0956974,68.1992188 62.1523475,68.5214812 61.4023438,69.1660156 C60.65234,69.7988313 60.2773438,70.5956983 60.2773438,71.5566406 C60.2773438,72.880866 61.2617089,73.9472616 63.2304688,74.7558594 L65.9375,75.8632812 C68.140636,76.7539107 69.751948,77.8408139 70.7714844,79.1240234 C71.7910207,80.407233 72.3007812,81.9804594 72.3007812,83.84375 C72.3007812,86.3398562 71.4687583,88.4023356 69.8046875,90.03125 C68.1288979,91.6718832 66.0488405,92.4921875 63.5644531,92.4921875 C61.2089726,92.4921875 59.2636796,91.7949288 57.7285156,90.4003906 C56.2167893,89.0058524 55.2734394,87.0429814 54.8984375,84.5117188 L59.046875,83.5976562 C59.2343759,85.1914142 59.5624977,86.2929657 60.03125,86.9023438 C60.8750042,88.0742246 62.1054607,88.6601562 63.7226562,88.6601562 C65.0000064,88.6601562 66.0605427,88.2324262 66.9042969,87.3769531 C67.7480511,86.5214801 68.1699219,85.4375066 68.1699219,84.125 C68.1699219,83.5976536 68.0966804,83.11426 67.9501953,82.6748047 C67.8037102,82.2353494 67.5751969,81.8310565 67.2646484,81.4619141 C66.9541,81.0927716 66.5527368,80.7470719 66.0605469,80.4248047 C65.5683569,80.1025375 64.9824253,79.7949233 64.3027344,79.5019531 L61.6835938,78.4121094 C57.9687314,76.841789 56.1113281,74.544937 56.1113281,71.5214844 C56.1113281,69.4824117 56.8906172,67.7773506 58.4492188,66.40625 C60.0078203,65.0234306 61.947254,64.3320312 64.2675781,64.3320312 C67.3965,64.3320312 69.839835,65.8554535 71.5976562,68.9023438 L71.5976562,68.9023438 L71.5976562,68.9023438 Z M89.1054688,74.8789062 L93.078125,74.8789062 L93.078125,92 L89.1054688,92 L89.1054688,90.2070312 C87.4765544,91.7304764 85.7246188,92.4921875 83.8496094,92.4921875 C81.48241,92.4921875 79.5253984,91.6367273 77.9785156,89.9257812 C76.4433517,88.1796788 75.6757812,86.0000131 75.6757812,83.3867188 C75.6757812,80.8202997 76.4433517,78.6816492 77.9785156,76.9707031 C79.5136796,75.2597571 81.4355353,74.4042969 83.7441406,74.4042969 C85.7363381,74.4042969 87.5234296,75.2246012 89.1054688,76.8652344 L89.1054688,74.8789062 L89.1054688,74.8789062 Z M79.71875,83.3867188 C79.71875,85.027352 80.1581987,86.3632761 81.0371094,87.3945312 C81.9394576,88.4375052 83.076165,88.9589844 84.4472656,88.9589844 C85.9121167,88.9589844 87.0956986,88.4550832 87.9980469,87.4472656 C88.9003951,86.4042917 89.3515625,85.0800862 89.3515625,83.4746094 C89.3515625,81.8691326 88.9003951,80.5449271 87.9980469,79.5019531 C87.0956986,78.4824168 85.9238353,77.9726562 84.4824219,77.9726562 C83.1230401,77.9726562 81.9863327,78.4882761 81.0722656,79.5195312 C80.1699174,80.5625052 79.71875,81.8515548 79.71875,83.3867188 L79.71875,83.3867188 L79.71875,83.3867188 Z M102.148438,78.5703125 L102.148438,92 L98.1933594,92 L98.1933594,78.5703125 L96.5058594,78.5703125 L96.5058594,74.8789062 L98.1933594,74.8789062 L98.1933594,68.6035156 L102.148438,68.6035156 L102.148438,74.8789062 L105.224609,74.8789062 L105.224609,78.5703125 L102.148438,78.5703125 L102.148438,78.5703125 Z M111.869141,74.8789062 L111.869141,92 L107.914062,92 L107.914062,74.8789062 L111.869141,74.8789062 L111.869141,74.8789062 Z M107.316406,67.7597656 C107.316406,67.0683559 107.568357,66.4707056 108.072266,65.9667969 C108.576174,65.4628881 109.179684,65.2109375 109.882812,65.2109375 C110.59766,65.2109375 111.207029,65.4628881 111.710938,65.9667969 C112.214846,66.4589868 112.466797,67.0624964 112.466797,67.7773438 C112.466797,68.4921911 112.214846,69.10156 111.710938,69.6054688 C111.218748,70.1093775 110.615238,70.3613281 109.900391,70.3613281 C109.185543,70.3613281 108.576174,70.1093775 108.072266,69.6054688 C107.568357,69.10156 107.316406,68.4863318 107.316406,67.7597656 L107.316406,67.7597656 L107.316406,67.7597656 Z M126.828125,77.796875 L123.558594,79.5371094 C123.042966,78.4824166 122.404301,77.9550781 121.642578,77.9550781 C121.279295,77.9550781 120.968751,78.0751941 120.710938,78.3154297 C120.453124,78.5556653 120.324219,78.8632794 120.324219,79.2382812 C120.324219,79.8945345 121.08593,80.5449187 122.609375,81.1894531 C124.707042,82.0918014 126.119137,82.9238243 126.845703,83.6855469 C127.572269,84.4472694 127.935547,85.4726498 127.935547,86.7617188 C127.935547,88.4140708 127.326178,89.7968694 126.107422,90.9101562 C124.923822,91.964849 123.494149,92.4921875 121.818359,92.4921875 C118.947251,92.4921875 116.914068,91.0918109 115.71875,88.2910156 L119.09375,86.7265625 C119.562502,87.5468791 119.919921,88.0683583 120.166016,88.2910156 C120.646487,88.7363304 121.2207,88.9589844 121.888672,88.9589844 C123.224616,88.9589844 123.892578,88.3496155 123.892578,87.1308594 C123.892578,86.4277309 123.376958,85.7714874 122.345703,85.1621094 C121.947264,84.9628896 121.54883,84.7695322 121.150391,84.5820312 C120.751951,84.3945303 120.347658,84.2011729 119.9375,84.0019531 C118.789057,83.4394503 117.980471,82.8769559 117.511719,82.3144531 C116.91406,81.5996058 116.615234,80.6796931 116.615234,79.5546875 C116.615234,78.0663988 117.124995,76.8359424 118.144531,75.8632812 C119.187505,74.8906201 120.453118,74.4042969 121.941406,74.4042969 C124.132823,74.4042969 125.761713,75.5351449 126.828125,77.796875 L126.828125,77.796875 L126.828125,77.796875 Z M131.292969,92 L137.005859,62.8203125 L146.322266,83.9140625 L155.972656,62.8203125 L161.105469,92 L156.904297,92 L154.285156,75.6171875 L146.251953,93.2480469 L138.447266,75.5996094 L135.529297,92 L131.292969,92 L131.292969,92 Z M181.689453,84.3710938 L169.419922,84.3710938 C169.525391,85.7773508 169.982418,86.8964802 170.791016,87.7285156 C171.599613,88.5488322 172.636712,88.9589844 173.902344,88.9589844 C174.886724,88.9589844 175.701169,88.7246117 176.345703,88.2558594 C176.978519,87.787107 177.699215,86.9199282 178.507812,85.6542969 L181.847656,87.5175781 C181.332029,88.3964888 180.787112,89.1494109 180.212891,89.7763672 C179.638669,90.4033234 179.023441,90.9189433 178.367188,91.3232422 C177.710934,91.7275411 177.001957,92.0234366 176.240234,92.2109375 C175.478512,92.3984384 174.652348,92.4921875 173.761719,92.4921875 C171.207018,92.4921875 169.156258,91.6718832 167.609375,90.03125 C166.062492,88.378898 165.289062,86.1875137 165.289062,83.4570312 C165.289062,80.7499865 166.039055,78.5586021 167.539062,76.8828125 C169.050789,75.2304605 171.054675,74.4042969 173.550781,74.4042969 C176.070325,74.4042969 178.062493,75.2070232 179.527344,76.8125 C180.980476,78.406258 181.707031,80.6152203 181.707031,83.4394531 L181.689453,84.3710938 L181.689453,84.3710938 Z M177.628906,81.1367188 C177.078122,79.0273332 175.748057,77.9726562 173.638672,77.9726562 C173.158201,77.9726562 172.707033,78.0458977 172.285156,78.1923828 C171.863279,78.3388679 171.479494,78.5498033 171.133789,78.8251953 C170.788084,79.1005873 170.492189,79.4316387 170.246094,79.8183594 C169.999999,80.2050801 169.812501,80.6445288 169.683594,81.1367188 L177.628906,81.1367188 L177.628906,81.1367188 Z M190.091797,78.5703125 L190.091797,92 L186.136719,92 L186.136719,78.5703125 L184.449219,78.5703125 L184.449219,74.8789062 L186.136719,74.8789062 L186.136719,68.6035156 L190.091797,68.6035156 L190.091797,74.8789062 L193.167969,74.8789062 L193.167969,78.5703125 L190.091797,78.5703125 L190.091797,78.5703125 Z M211.449219,84.3710938 L199.179688,84.3710938 C199.285157,85.7773508 199.742183,86.8964802 200.550781,87.7285156 C201.359379,88.5488322 202.396478,88.9589844 203.662109,88.9589844 C204.646489,88.9589844 205.460934,88.7246117 206.105469,88.2558594 C206.738284,87.787107 207.45898,86.9199282 208.267578,85.6542969 L211.607422,87.5175781 C211.091794,88.3964888 210.546878,89.1494109 209.972656,89.7763672 C209.398435,90.4033234 208.783206,90.9189433 208.126953,91.3232422 C207.4707,91.7275411 206.761723,92.0234366 206,92.2109375 C205.238277,92.3984384 204.412114,92.4921875 203.521484,92.4921875 C200.966784,92.4921875 198.916023,91.6718832 197.369141,90.03125 C195.822258,88.378898 195.048828,86.1875137 195.048828,83.4570312 C195.048828,80.7499865 195.798821,78.5586021 197.298828,76.8828125 C198.810554,75.2304605 200.814441,74.4042969 203.310547,74.4042969 C205.830091,74.4042969 207.822258,75.2070232 209.287109,76.8125 C210.740242,78.406258 211.466797,80.6152203 211.466797,83.4394531 L211.449219,84.3710938 L211.449219,84.3710938 Z M207.388672,81.1367188 C206.837888,79.0273332 205.507823,77.9726562 203.398438,77.9726562 C202.917966,77.9726562 202.466799,78.0458977 202.044922,78.1923828 C201.623045,78.3388679 201.23926,78.5498033 200.893555,78.8251953 C200.54785,79.1005873 200.251954,79.4316387 200.005859,79.8183594 C199.759764,80.2050801 199.572266,80.6445288 199.443359,81.1367188 L207.388672,81.1367188 L207.388672,81.1367188 Z M215.773438,74.8789062 L219.728516,74.8789062 L219.728516,76.4082031 C220.455082,75.6464806 221.099607,75.1250014 221.662109,74.84375 C222.236331,74.5507798 222.916012,74.4042969 223.701172,74.4042969 C224.744146,74.4042969 225.833979,74.7441372 226.970703,75.4238281 L225.160156,79.0449219 C224.410152,78.5058567 223.677738,78.2363281 222.962891,78.2363281 C220.80663,78.2363281 219.728516,79.8652181 219.728516,83.1230469 L219.728516,92 L215.773438,92 L215.773438,74.8789062 L215.773438,74.8789062 Z" id="SatisMeter" fill="#AAAAAA"></path>
                </g>
            </g>
        </g>
    </g>
</svg>